# xmcd
#
# Track frame offsets:
#	182
#	16752
#	28887
#	44487
#	60262
#	75220
#	90497
#	105937
#	120502
#	133300
#	150675
#
# Disc length: 2199 seconds
#
# Revision: 4
# Processed by: cddbd v1.5.2PL0 Copyright (c) Steve Scherf et al.
# Submitted via: audiograbber 1.83.01
#
DISCID=7708950b
DTITLE=David Kersh - Goodnight Sweetheart
DYEAR=1996
DGENRE=Country
TTITLE0=Breaking Hearts And Taking Names
TTITLE1=She Wants Me To Stay
TTITLE2=Goodnight Sweetheart
TTITLE3=Things Your Daddy Wouldn't Want Us To Do
TTITLE4=Until Now
TTITLE5=Day In, Day Out
TTITLE6=The Love Of A Man
TTITLE7=Boys Will Be Boys
TTITLE8=One Good Reason
TTITLE9=Another You
TTITLE10=Louisiana Country Mile
EXTD=
EXTT0=
EXTT1=
EXTT2=
EXTT3=
EXTT4=
EXTT5=
EXTT6=
EXTT7=
EXTT8=
EXTT9=
EXTT10=
PLAYORDER=
